<svg width="257" height="61" viewBox="0 0 257 61" fill="none" xmlns="http://www.w3.org/2000/svg">
<path d="M84.6515 53.0027L82.7759 49.9949L84.52 47.3416H85.8638L84.1311 49.9377L86.1554 53.0027H84.6515ZM80.8889 53.0027V47.3416H82.1469V49.526H83.8509V50.5667H82.1469V53.0027H80.8889ZM86.923 55.4044V47.3416H88.0552V48.1364C88.2801 47.8505 88.5679 47.618 88.9187 47.4388C89.2694 47.2596 89.7021 47.17 90.2167 47.17C90.7695 47.17 91.2594 47.3016 91.6863 47.5646C92.1171 47.8238 92.4526 48.1803 92.6927 48.6339C92.9329 49.0838 93.053 49.5965 93.053 50.1721C93.053 50.5877 92.9844 50.9784 92.8471 51.3444C92.7099 51.7065 92.5136 52.0249 92.2581 52.2993C92.0065 52.5738 91.7054 52.7892 91.3547 52.9455C91.0077 53.098 90.6227 53.1742 90.1996 53.1742C89.7574 53.1742 89.3685 53.0942 89.033 52.9341C88.6976 52.774 88.4117 52.5586 88.1753 52.2879V55.4044H86.923ZM89.988 52.0592C90.3387 52.0592 90.6494 51.9829 90.9201 51.8304C91.1945 51.6741 91.408 51.4549 91.5605 51.1728C91.7168 50.8907 91.795 50.5572 91.795 50.1721C91.795 49.7871 91.7168 49.4535 91.5605 49.1714C91.4042 48.8855 91.1888 48.6663 90.9143 48.5138C90.6437 48.3614 90.3349 48.2851 89.988 48.2851C89.6373 48.2851 89.3247 48.3614 89.0502 48.5138C88.7795 48.6663 88.566 48.8855 88.4097 49.1714C88.2534 49.4535 88.1753 49.7871 88.1753 50.1721C88.1753 50.5572 88.2534 50.8907 88.4097 51.1728C88.566 51.4549 88.7795 51.6741 89.0502 51.8304C89.3247 51.9829 89.6373 52.0592 89.988 52.0592ZM96.6139 53.1742C96.004 53.1742 95.4684 53.0503 95.0071 52.8025C94.5458 52.5509 94.1856 52.2002 93.9264 51.7504C93.6709 51.3005 93.5432 50.7783 93.5432 50.1836C93.5432 49.749 93.6176 49.3487 93.7662 48.9827C93.9149 48.613 94.1246 48.2927 94.3953 48.0221C94.6659 47.7514 94.9823 47.5417 95.3445 47.3931C95.7105 47.2444 96.1088 47.17 96.5396 47.17C97.0085 47.17 97.4259 47.2539 97.7919 47.4216C98.1579 47.5856 98.461 47.8162 98.7011 48.1136C98.9451 48.4109 99.1166 48.7597 99.2158 49.16C99.3187 49.5565 99.3358 49.9872 99.2672 50.4523H94.7498C94.7422 50.7916 94.8165 51.089 94.9728 51.3444C95.1291 51.596 95.3521 51.7923 95.6418 51.9334C95.9354 52.0744 96.2804 52.1449 96.6768 52.1449C96.9971 52.1449 97.3059 52.0973 97.6032 52.002C97.9044 51.9029 98.1769 51.758 98.4209 51.5674L98.907 52.4709C98.724 52.6196 98.5029 52.7473 98.2437 52.854C97.9844 52.9569 97.7138 53.0351 97.4317 53.0885C97.1496 53.1456 96.877 53.1742 96.6139 53.1742ZM94.8241 49.526H98.0321C98.0206 49.099 97.8834 48.7635 97.6204 48.5196C97.3611 48.2756 96.9914 48.1536 96.511 48.1536C96.0459 48.1536 95.659 48.2756 95.3502 48.5196C95.0452 48.7635 94.8699 49.099 94.8241 49.526ZM104.342 53.0027V48.3823H102.055V49.1314C102.055 49.6461 102.025 50.1111 101.964 50.5267C101.903 50.9422 101.794 51.3082 101.638 51.6246C101.481 51.9372 101.262 52.1964 100.98 52.4023C100.702 52.6081 100.345 52.7587 99.9107 52.854L99.6019 52.002C99.9641 51.9143 100.237 51.7504 100.42 51.5102C100.603 51.27 100.725 50.9536 100.786 50.561C100.85 50.1645 100.883 49.688 100.883 49.1314V47.3416H105.6V53.0027H104.342ZM99.6019 54.7182V52.002L100.38 52.082L100.574 51.962H106.738V54.7182H105.589V53.0027H100.751V54.7182H99.6019ZM107.505 53.0027V47.3416H108.723V51.1614L111.793 47.3416H112.891V53.0027H111.679V49.1371L108.58 53.0027H107.505ZM115.562 53.0027V48.3823H113.704V47.3416H118.684V48.3823H116.82V53.0027H115.562ZM119.495 53.0027V47.3416H120.713V51.1614L123.784 47.3416H124.881V53.0027H123.669V49.1371L120.57 53.0027H119.495ZM132.86 53.0027V48.3823H130.573V49.1314C130.573 49.6461 130.542 50.1111 130.481 50.5267C130.42 50.9422 130.312 51.3082 130.155 51.6246C129.999 51.9372 129.78 52.1964 129.498 52.4023C129.219 52.6081 128.863 52.7587 128.428 52.854L128.12 52.002C128.482 51.9143 128.754 51.7504 128.937 51.5102C129.12 51.27 129.242 50.9536 129.303 50.561C129.368 50.1645 129.4 49.688 129.4 49.1314V47.3416H134.118V53.0027H132.86ZM128.12 54.7182V52.002L128.897 52.082L129.092 51.962H135.256V54.7182H134.107V53.0027H129.269V54.7182H128.12ZM136.04 53.0999L135.6 51.9677C135.988 51.8686 136.272 51.7123 136.452 51.4988C136.635 51.2853 136.749 50.9879 136.795 50.6067C136.844 50.2255 136.869 49.7337 136.869 49.1314V47.3416H141.472V53.0027H140.214V48.3823H138.041V49.1314C138.041 49.7376 138.013 50.2655 137.956 50.7154C137.902 51.1652 137.803 51.5483 137.658 51.8647C137.513 52.1812 137.309 52.4404 137.046 52.6424C136.787 52.8407 136.452 52.9932 136.04 53.0999ZM142.488 53.0027L144.661 50.1035L144.936 50.9155C144.467 50.9193 144.067 50.8507 143.735 50.7097C143.403 50.5648 143.15 50.3627 142.974 50.1035C142.803 49.8405 142.717 49.5298 142.717 49.1714C142.717 48.7864 142.814 48.4586 143.009 48.1879C143.203 47.9134 143.478 47.7038 143.832 47.5589C144.187 47.414 144.602 47.3416 145.079 47.3416H147.521V53.0027H146.308V48.2965H145.205C144.801 48.2965 144.494 48.3671 144.284 48.5081C144.078 48.6492 143.975 48.8607 143.975 49.1429C143.975 49.4173 144.071 49.6308 144.261 49.7833C144.456 49.932 144.736 50.0063 145.102 50.0063H146.468V50.9212H145.473L143.924 53.0027H142.488ZM151.388 53.0027V47.3416H156.735V53.0027H155.477V48.3823H152.647V53.0027H151.388ZM158.137 53.0027V47.3416H159.395V53.0027H158.137ZM158.766 46.3295C158.541 46.3295 158.347 46.257 158.183 46.1122C158.019 45.9673 157.937 45.7767 157.937 45.5403C157.937 45.3078 158.019 45.1191 158.183 44.9742C158.347 44.8256 158.541 44.7512 158.766 44.7512C158.991 44.7512 159.186 44.8256 159.35 44.9742C159.514 45.1191 159.596 45.3078 159.596 45.5403C159.596 45.7767 159.514 45.9673 159.35 46.1122C159.186 46.257 158.991 46.3295 158.766 46.3295ZM164.91 53.0027V48.3823H162.623V49.1314C162.623 49.6461 162.592 50.1111 162.531 50.5267C162.47 50.9422 162.362 51.3082 162.205 51.6246C162.049 51.9372 161.83 52.1964 161.548 52.4023C161.269 52.6081 160.913 52.7587 160.478 52.854L160.17 52.002C160.532 51.9143 160.804 51.7504 160.987 51.5102C161.17 51.27 161.292 50.9536 161.353 50.561C161.418 50.1645 161.451 49.688 161.451 49.1314V47.3416H166.168V53.0027H164.91ZM160.17 54.7182V52.002L160.947 52.082L161.142 51.962H167.306V54.7182H166.157V53.0027H161.319V54.7182H160.17ZM168.072 53.0027V47.3416H173.419V53.0027H172.161V48.3823H169.33V53.0027H168.072ZM174.821 55.4044V47.3416H175.954V48.1364C176.178 47.8505 176.466 47.618 176.817 47.4388C177.168 47.2596 177.6 47.17 178.115 47.17C178.668 47.17 179.158 47.3016 179.585 47.5646C180.015 47.8238 180.351 48.1803 180.591 48.6339C180.831 49.0838 180.951 49.5965 180.951 50.1721C180.951 50.5877 180.883 50.9784 180.745 51.3444C180.608 51.7065 180.412 52.0249 180.157 52.2993C179.905 52.5738 179.604 52.7892 179.253 52.9455C178.906 53.098 178.521 53.1742 178.098 53.1742C177.656 53.1742 177.267 53.0942 176.931 52.9341C176.596 52.774 176.31 52.5586 176.074 52.2879V55.4044H174.821ZM177.886 52.0592C178.237 52.0592 178.548 51.9829 178.818 51.8304C179.093 51.6741 179.306 51.4549 179.459 51.1728C179.615 50.8907 179.693 50.5572 179.693 50.1721C179.693 49.7871 179.615 49.4535 179.459 49.1714C179.303 48.8855 179.087 48.6663 178.813 48.5138C178.542 48.3614 178.233 48.2851 177.886 48.2851C177.536 48.2851 177.223 48.3614 176.949 48.5138C176.678 48.6663 176.464 48.8855 176.308 49.1714C176.152 49.4535 176.074 49.7871 176.074 50.1721C176.074 50.5572 176.152 50.8907 176.308 51.1728C176.464 51.4549 176.678 51.6741 176.949 51.8304C177.223 51.9829 177.536 52.0592 177.886 52.0592ZM181.872 53.0027V47.3416H183.09V51.1614L186.161 47.3416H187.258V53.0027H186.046V49.1371L182.947 53.0027H181.872ZM191.261 53.1742C190.652 53.1742 190.114 53.0446 189.649 52.7854C189.188 52.5224 188.827 52.1659 188.568 51.7161C188.309 51.2624 188.179 50.7478 188.179 50.1721C188.179 49.7376 188.256 49.3392 188.408 48.977C188.561 48.6111 188.778 48.2927 189.06 48.0221C189.346 47.7514 189.681 47.5417 190.066 47.3931C190.455 47.2444 190.88 47.17 191.342 47.17C191.738 47.17 192.108 47.2196 192.451 47.3187C192.798 47.4178 193.116 47.5703 193.406 47.7762L192.811 48.6682C192.621 48.5043 192.398 48.3823 192.142 48.3023C191.887 48.2222 191.616 48.1822 191.33 48.1822C190.915 48.1822 190.56 48.2603 190.267 48.4166C189.973 48.5691 189.748 48.7921 189.592 49.0857C189.439 49.3792 189.363 49.7395 189.363 50.1664C189.363 50.5896 189.439 50.9498 189.592 51.2472C189.748 51.5445 189.971 51.7714 190.261 51.9276C190.554 52.0839 190.911 52.1621 191.33 52.1621C191.647 52.1621 191.944 52.1125 192.222 52.0134C192.5 51.9105 192.735 51.7733 192.925 51.6017L193.503 52.4423C193.187 52.671 192.836 52.8502 192.451 52.9798C192.066 53.1094 191.669 53.1742 191.261 53.1742ZM188.986 50.5781V49.6346H192.411V50.5781H188.986ZM194.32 53.0027V47.3416H195.412H195.446L197.985 51.0127L197.442 51.0242L199.855 47.3416H200.97V53.0027H199.826L199.844 48.8169L200.078 48.9198L198.054 51.8762H197.242L195.126 48.9141L195.36 48.8112L195.378 53.0027H194.32ZM202.375 53.0027V47.3416H203.633V51.962H206.338V47.3416H207.596V53.0027H202.375ZM207.894 54.7182V53.0027H206.967V51.962H209.049V54.7182H207.894ZM209.817 53.0027V47.3416H211.075V53.0027H209.817ZM210.446 46.3295C210.221 46.3295 210.026 46.257 209.862 46.1122C209.699 45.9673 209.617 45.7767 209.617 45.5403C209.617 45.3078 209.699 45.1191 209.862 44.9742C210.026 44.8256 210.221 44.7512 210.446 44.7512C210.671 44.7512 210.865 44.8256 211.029 44.9742C211.193 45.1191 211.275 45.3078 211.275 45.5403C211.275 45.7767 211.193 45.9673 211.029 46.1122C210.865 46.257 210.671 46.3295 210.446 46.3295ZM212.478 53.0027V47.3416H215.177C215.817 47.3416 216.33 47.4636 216.715 47.7076C217.1 47.9515 217.293 48.3175 217.293 48.8055C217.293 49.0342 217.237 49.2382 217.127 49.4173C217.016 49.5927 216.864 49.7395 216.669 49.8576C216.475 49.9758 216.248 50.0616 215.989 50.115L215.966 49.8348C216.466 49.9034 216.852 50.0692 217.127 50.3323C217.401 50.5953 217.539 50.9289 217.539 51.3329C217.539 51.676 217.449 51.9734 217.27 52.225C217.091 52.4728 216.833 52.6653 216.498 52.8025C216.162 52.936 215.76 53.0027 215.291 53.0027H212.478ZM213.696 52.0706H215.12C215.497 52.0706 215.787 52.0077 215.989 51.8819C216.195 51.7561 216.298 51.5674 216.298 51.3158C216.298 51.068 216.197 50.8831 215.995 50.7611C215.793 50.6353 215.501 50.5724 215.12 50.5724H213.53V49.6746H214.988C215.343 49.6746 215.617 49.6213 215.812 49.5145C216.006 49.404 216.103 49.2248 216.103 48.977C216.103 48.7292 216.006 48.5501 215.812 48.4395C215.617 48.3251 215.343 48.268 214.988 48.268H213.696V52.0706Z" fill="#6A6A6A"/>
<path d="M140.619 14.3859C143.488 14.3859 145.517 15.334 146.706 17.23C147.81 19.041 148.362 21.6177 148.362 24.9602V35.2245H143.764V24.9602C143.764 22.7359 143.377 21.0708 142.605 19.9647C141.845 18.8466 140.637 18.2875 138.982 18.2875C137.192 18.2875 135.8 18.8952 134.807 20.1106C133.813 21.3382 133.317 22.9547 133.317 24.9602V35.2245H128.7V24.9602C128.7 22.7359 128.314 21.0708 127.542 19.9647C126.782 18.8466 125.574 18.2875 123.918 18.2875C122.128 18.2875 120.737 18.8952 119.743 20.1106C118.738 21.326 118.235 22.9425 118.235 24.9602V35.2245H113.637V14.6959H118.033L118.235 17.9411C118.861 16.7135 119.762 15.8141 120.939 15.2428C122.128 14.6716 123.661 14.3859 125.537 14.3859C129.032 14.3859 131.331 15.8627 132.434 18.8162C133.108 17.382 134.138 16.2881 135.524 15.5345C136.922 14.7688 138.62 14.3859 140.619 14.3859Z" fill="#2046D2"/>
<path d="M164.488 35.5135C162.686 35.5135 161.098 35.2036 159.724 34.5837C158.363 33.9517 157.364 33.0826 156.727 31.9766V42.6967H152.128V14.6932H156.524L156.727 17.9384C157.94 15.5683 160.528 14.3833 164.488 14.3833C166.266 14.3468 167.921 14.7904 169.454 15.7142C170.987 16.6379 172.201 17.9202 173.096 19.561C173.991 21.2018 174.42 23.0007 174.383 24.9575C174.408 26.4282 174.156 27.8259 173.629 29.1507C173.114 30.4755 172.409 31.6059 171.514 32.5418C170.619 33.4777 169.558 34.2191 168.332 34.766C167.106 35.3008 165.825 35.55 164.488 35.5135ZM167.872 20.1809C166.597 18.9168 165.058 18.2848 163.256 18.2848C161.453 18.2848 159.914 18.9168 158.639 20.1809C157.364 21.4692 156.727 23.0554 156.727 24.9393C156.727 26.8475 157.364 28.4336 158.639 29.6977C159.902 30.9739 161.441 31.612 163.256 31.612C165.058 31.612 166.597 30.9799 167.872 29.7159C169.135 28.464 169.767 26.8718 169.767 24.9393C169.767 23.0189 169.135 21.4328 167.872 20.1809Z" fill="#2046D2"/>
<path d="M178.529 35.1458V7.14233H183.145V35.1458H178.529Z" fill="#2046D2"/>
<path d="M188.042 14.6767H192.639V35.1826H188.042V14.6767Z" fill="#2046D2"/>
<path d="M192.612 9.43117C192.612 10.675 191.595 11.6833 190.34 11.6833C189.086 11.6833 188.068 10.675 188.068 9.43117C188.068 8.18735 189.086 7.17904 190.34 7.17904C191.595 7.17904 192.612 8.18735 192.612 9.43117Z" fill="#2046D2"/>
<path d="M212.674 34.2003C211.006 35.0511 209.161 35.4765 207.138 35.4765C205.115 35.4765 203.269 35.0511 201.602 34.2003C199.91 33.3374 198.561 32.0976 197.555 30.4811C196.538 28.8524 196.029 27.005 196.029 24.9388C196.029 22.8604 196.538 21.0069 197.555 19.3782C198.561 17.7617 199.91 16.5219 201.602 15.659C203.269 14.8082 205.115 14.3828 207.138 14.3828C209.161 14.3828 211.006 14.8082 212.674 15.659C214.354 16.5219 215.709 17.7617 216.739 19.3782C217.756 21.0069 218.265 22.8604 218.265 24.9388C218.265 27.005 217.756 28.8524 216.739 30.4811C215.709 32.0976 214.354 33.3374 212.674 34.2003ZM200.609 24.9205C200.609 26.8409 201.246 28.4331 202.521 29.6972C203.797 30.9612 205.341 31.5932 207.156 31.5932C208.959 31.5932 210.497 30.9612 211.773 29.6972C213.036 28.4453 213.667 26.8531 213.667 24.9205C213.667 23.0002 213.036 21.414 211.773 20.1621C210.497 18.8981 208.959 18.2661 207.156 18.2661C205.341 18.2661 203.797 18.8981 202.521 20.1621C201.246 21.4262 200.609 23.0123 200.609 24.9205Z" fill="#2046D2"/>
<path d="M101.069 7.17466C97.8631 7.17466 94.9635 9.06111 93.6882 11.9763L83.4837 35.3026H88.4104L97.8351 13.7589C98.3939 12.4817 99.6642 11.6552 101.069 11.6552C103.015 11.6552 104.593 13.2193 104.593 15.1488V35.2798H109.113V15.1488C109.113 10.7448 105.511 7.17466 101.069 7.17466Z" fill="#2046D2"/>
<path d="M95.4758 29.3665C106.135 29.6188 112.412 22.7111 116.922 17.6069L113.617 14.7368C109.036 19.9205 103.99 25.2107 95.5807 25.0117C91.9772 24.9264 88.9346 23.528 86.4973 21.928C85.2806 21.1291 84.2377 20.2955 83.3567 19.5656C83.2751 19.498 83.1921 19.4288 83.1082 19.3587L82.9389 19.217C82.2741 18.6602 81.57 18.0706 81.0335 17.7477L78.7529 21.4713C78.9691 21.6014 79.3098 21.8853 79.9413 22.4115C80.0807 22.5276 80.2342 22.6556 80.4037 22.7963L80.5386 22.9081C81.4621 23.6732 82.6512 24.6277 84.0708 25.5597C86.9063 27.4213 90.7541 29.2548 95.4758 29.3665Z" fill="#2046D2"/>
<path d="M0 30.478C0 16.9854 0 10.2391 3.88425 5.81001C4.33471 5.29635 4.81832 4.81274 5.33198 4.36227C9.76111 0.478027 16.5074 0.478027 30 0.478027C43.4926 0.478027 50.2389 0.478027 54.668 4.36227C55.1817 4.81274 55.6653 5.29635 56.1158 5.81001C60 10.2391 60 16.9854 60 30.478C60 43.9706 60 50.7169 56.1158 55.146C55.6653 55.6597 55.1817 56.1433 54.668 56.5938C50.2389 60.478 43.4926 60.478 30 60.478C16.5074 60.478 9.76111 60.478 5.33198 56.5938C4.81832 56.1433 4.33471 55.6597 3.88425 55.146C0 50.7169 0 43.9706 0 30.478Z" fill="#2046D2"/>
<path fill-rule="evenodd" clip-rule="evenodd" d="M33.7098 14.3041C30.0292 14.3041 26.6999 16.4736 25.2357 19.8261L19.5788 32.7774C18.655 32.3152 17.788 31.8027 16.9791 31.2708C15.582 30.3521 14.3846 29.3933 13.373 28.554C13.2167 28.4243 13.0561 28.2895 12.8934 28.1531C12.13 27.5128 11.3215 26.8347 10.7056 26.4634L8.08696 30.7455C8.33518 30.8952 8.72646 31.2217 9.45155 31.8269C9.653 31.995 9.88021 32.1846 10.1373 32.3979C11.1977 33.2778 12.563 34.3756 14.193 35.4474C15.207 36.1142 16.3339 36.7779 17.5687 37.3796L13.5188 46.6519H19.1757L22.444 39.1692C23.9547 39.5453 25.5711 39.7846 27.2881 39.8253C31.2774 39.9199 34.7322 39.1396 37.7564 37.8414V46.6257H42.9464V34.8885C46.5925 32.2824 49.4773 29.0625 51.913 26.3014L48.1173 23.0007C46.4791 24.8577 44.789 26.7266 42.9464 28.4129V23.4745C42.9464 18.4099 38.811 14.3041 33.7098 14.3041ZM27.4086 34.8171C26.3958 34.7931 25.4216 34.6786 24.4867 34.4924L29.9972 21.8761C30.6387 20.4073 32.0973 19.4569 33.7098 19.4569C35.9447 19.4569 37.7564 21.2556 37.7564 23.4745V32.2535C34.8219 33.9007 31.4542 34.913 27.4086 34.8171Z" fill="white"/>
</svg>
